<?xml version="1.0" encoding="utf-8"?>
<!-- Generator: Adobe Illustrator 16.0.0, SVG Export Plug-In . SVG Version: 6.00 Build 0)  -->
<!DOCTYPE svg PUBLIC "-//W3C//DTD SVG 1.1//EN" "http://www.w3.org/Graphics/SVG/1.1/DTD/svg11.dtd">
<svg version="1.1" id="Layer_1" xmlns="http://www.w3.org/2000/svg" xmlns:xlink="http://www.w3.org/1999/xlink" x="0px" y="0px"
	 width="164.5px" height="44.25px" viewBox="0 0 164.5 44.25" enable-background="new 0 0 164.5 44.25" xml:space="preserve">
<g>
	<path fill="#FFFFFF" d="M53.714,33.806c-1.638-0.898-2.907-2.188-3.804-3.869c-0.899-1.682-1.349-3.639-1.349-5.87
		c0-2.232,0.449-4.181,1.349-5.849c0.897-1.666,2.166-2.949,3.804-3.848c1.637-0.898,3.543-1.348,5.717-1.348
		c2.175,0,4.08,0.45,5.718,1.348s2.899,2.182,3.784,3.848c0.884,1.668,1.326,3.617,1.326,5.849c0,2.231-0.442,4.188-1.326,5.87
		c-0.885,1.681-2.146,2.971-3.784,3.869c-1.638,0.899-3.543,1.348-5.718,1.348C57.258,35.153,55.352,34.705,53.714,33.806z
		 M63.433,29.197c0.928-1.159,1.392-2.87,1.392-5.131c0-2.232-0.464-3.936-1.392-5.109c-0.929-1.174-2.261-1.761-4.001-1.761
		c-1.738,0-3.08,0.587-4.021,1.761c-0.942,1.174-1.414,2.877-1.414,5.109c0,2.261,0.464,3.972,1.392,5.131
		c0.927,1.16,2.261,1.739,4,1.739C61.156,30.937,62.504,30.357,63.433,29.197z"/>
	<path fill="#FFFFFF" d="M88.391,13.587c0.436,0.377,0.653,0.942,0.653,1.696c0,0.783-0.189,1.363-0.565,1.739
		c-0.377,0.377-1.06,0.624-2.044,0.739l-1.305,0.131c-1.711,0.174-2.966,0.754-3.761,1.739c-0.798,0.986-1.197,2.218-1.197,3.697
		v9.132c0,0.84-0.26,1.484-0.781,1.935c-0.522,0.448-1.175,0.673-1.957,0.673s-1.429-0.225-1.935-0.673
		c-0.509-0.45-0.762-1.095-0.762-1.935V15.63c0-0.811,0.253-1.434,0.762-1.87c0.506-0.435,1.137-0.652,1.892-0.652
		c0.753,0,1.361,0.211,1.826,0.63c0.463,0.421,0.695,1.022,0.695,1.805v1.739c0.55-1.275,1.369-2.261,2.456-2.957
		c1.088-0.696,2.297-1.087,3.632-1.174l0.608-0.043C87.362,13.051,87.957,13.21,88.391,13.587z"/>
	<path fill="#FFFFFF" d="M108.501,14.413c1.436,0.928,2.552,2.239,3.348,3.935c0.798,1.696,1.197,3.646,1.197,5.848
		c0,2.204-0.399,4.131-1.197,5.783c-0.796,1.652-1.905,2.928-3.325,3.826c-1.421,0.899-3.06,1.348-4.914,1.348
		c-1.507,0-2.855-0.319-4.043-0.955c-1.189-0.638-2.103-1.523-2.74-2.653v8.87c0,0.754-0.246,1.349-0.739,1.782
		c-0.493,0.436-1.145,0.653-1.957,0.653c-0.812,0-1.472-0.232-1.978-0.695c-0.508-0.464-0.762-1.074-0.762-1.827V15.674
		c0-0.783,0.24-1.405,0.718-1.87c0.479-0.463,1.123-0.696,1.936-0.696c0.811,0,1.463,0.232,1.956,0.696
		c0.493,0.464,0.739,1.087,0.739,1.87v1.087c0.638-1.188,1.559-2.108,2.761-2.761c1.203-0.652,2.572-0.979,4.109-0.979
		C105.436,13.021,107.065,13.485,108.501,14.413z M106.175,29.175c0.957-1.173,1.435-2.833,1.435-4.979
		c0-2.202-0.478-3.913-1.435-5.131c-0.956-1.218-2.29-1.826-4-1.826c-1.739,0-3.081,0.594-4.022,1.782
		c-0.943,1.189-1.413,2.885-1.413,5.087c0,2.174,0.47,3.855,1.413,5.044c0.941,1.189,2.283,1.783,4.022,1.783
		C103.885,30.937,105.219,30.349,106.175,29.175z"/>
	<path fill="#FFFFFF" d="M121.503,33.806c-1.639-0.898-2.907-2.188-3.805-3.869c-0.899-1.682-1.349-3.639-1.349-5.87
		c0-2.232,0.449-4.181,1.349-5.849c0.897-1.666,2.166-2.949,3.805-3.848c1.637-0.898,3.543-1.348,5.718-1.348
		c2.173,0,4.079,0.45,5.717,1.348s2.898,2.182,3.783,3.848c0.885,1.668,1.327,3.617,1.327,5.849c0,2.231-0.442,4.188-1.327,5.87
		c-0.885,1.681-2.146,2.971-3.783,3.869c-1.638,0.899-3.544,1.348-5.717,1.348C125.046,35.153,123.14,34.705,121.503,33.806z
		 M131.221,29.197c0.928-1.159,1.392-2.87,1.392-5.131c0-2.232-0.464-3.936-1.392-5.109c-0.929-1.174-2.261-1.761-4-1.761
		c-1.74,0-3.08,0.587-4.021,1.761c-0.943,1.174-1.413,2.877-1.413,5.109c0,2.261,0.462,3.972,1.39,5.131
		c0.928,1.16,2.262,1.739,4.001,1.739C128.945,30.937,130.292,30.357,131.221,29.197z"/>
</g>
<path fill="#FFFFFF" d="M39.614,26.025L39.614,26.025c3.01,0,4.969,3.212,3.546,5.865c-3.348,6.24-10.048,10.416-17.69,10.119
	c-9.948-0.385-18.049-8.496-18.423-18.445C6.637,12.625,15.384,3.627,26.233,3.627c7.296,0,13.644,4.072,16.891,10.067
	c1.449,2.676-0.465,5.931-3.509,5.931l0,0c-1.45,0-2.812-0.77-3.493-2.05c-2.052-3.852-6.292-6.371-11.05-5.89
	c-5.383,0.545-9.654,4.979-10.014,10.377c-0.435,6.519,4.746,11.962,11.174,11.962c4.259,0,7.973-2.392,9.864-5.902
	C36.794,26.83,38.146,26.025,39.614,26.025z"/>
</svg>
